<?xml version="1.0" encoding="utf-8"?>
<!-- Generator: Adobe Illustrator 16.0.0, SVG Export Plug-In . SVG Version: 6.00 Build 0)  -->
<!DOCTYPE svg PUBLIC "-//W3C//DTD SVG 1.0//EN" "http://www.w3.org/TR/2001/REC-SVG-20010904/DTD/svg10.dtd">
<svg version="1.0" id="Layer_1" xmlns="http://www.w3.org/2000/svg" xmlns:xlink="http://www.w3.org/1999/xlink" x="0px" y="0px"
	 width="500px" height="88.818px" viewBox="0 0 500 88.818" enable-background="new 0 0 500 88.818" xml:space="preserve">
<g>
	<g>
		<path fill="#231F20" d="M119.092,86.016v-6.709l-1.289,1.367l-0.596-0.605l2.002-2.07h0.879v8.018H119.092z"/>
		<path fill="#231F20" d="M122.397,82.012c0-1.963,0.864-4.131,3.062-4.131c2.188,0,3.066,2.168,3.066,4.131
			c0,1.943-0.879,4.15-3.066,4.15C123.262,86.162,122.397,83.955,122.397,82.012z M127.505,82.012c0-1.602-0.518-3.242-2.046-3.242
			c-1.523,0-2.041,1.641-2.041,3.242s0.518,3.252,2.041,3.252C126.987,85.264,127.505,83.613,127.505,82.012z"/>
		<path fill="#231F20" d="M130.376,80.205c0-1.094,0.757-1.982,1.948-1.982c1.211,0,1.958,0.889,1.958,1.982
			c0,1.084-0.747,1.982-1.958,1.982C131.133,82.188,130.376,81.289,130.376,80.205z M133.574,80.205c0-0.781-0.459-1.387-1.25-1.387
			c-0.781,0-1.226,0.605-1.226,1.387s0.444,1.406,1.226,1.406C133.115,81.611,133.574,80.986,133.574,80.205z"/>
		<path fill="#231F20" d="M140.327,86.016v-8.018h5.249v0.889h-4.253v2.588h4.17v0.889h-4.17v2.764h4.253v0.889H140.327z"/>
		<path fill="#231F20" d="M153.594,86.016l-4.673-6.396v6.396h-0.996v-8.018h1.021l4.614,6.26v-6.26h0.996v8.018H153.594z"/>
		<path fill="#231F20" d="M156.865,82.012c0-2.461,1.816-4.15,4.121-4.15c1.416,0,2.402,0.674,3.042,1.592l-0.83,0.469
			c-0.459-0.684-1.299-1.162-2.212-1.162c-1.753,0-3.086,1.328-3.086,3.252c0,1.895,1.333,3.252,3.086,3.252
			c0.913,0,1.753-0.488,2.212-1.162l0.84,0.459c-0.674,0.928-1.636,1.602-3.052,1.602C158.682,86.162,156.865,84.473,156.865,82.012
			z"/>
		<path fill="#231F20" d="M165.747,82.012c0-2.363,1.611-4.15,3.975-4.15c2.368,0,3.989,1.787,3.989,4.15s-1.621,4.15-3.989,4.15
			C167.358,86.162,165.747,84.375,165.747,82.012z M172.681,82.012c0-1.875-1.167-3.252-2.959-3.252
			c-1.802,0-2.939,1.377-2.939,3.252c0,1.865,1.138,3.252,2.939,3.252C171.514,85.264,172.681,83.877,172.681,82.012z"/>
		<path fill="#231F20" d="M181.694,86.016l-4.673-6.396v6.396h-0.996v-8.018h1.021l4.614,6.26v-6.26h0.996v8.018H181.694z"/>
		<path fill="#231F20" d="M187.271,86.016v-7.129h-2.534v-0.889h6.079v0.889h-2.544v7.129H187.271z"/>
		<path fill="#231F20" d="M197.534,86.016l-2.031-3.184h-1.606v3.184h-1.001v-8.018h3.223c1.465,0,2.524,0.938,2.524,2.412
			c0,1.445-1.001,2.236-2.095,2.334l2.163,3.271H197.534z M197.607,80.41c0-0.908-0.664-1.523-1.611-1.523h-2.1v3.066h2.1
			C196.943,81.953,197.607,81.318,197.607,80.41z"/>
		<path fill="#231F20" d="M200.649,82.012c0-2.363,1.611-4.15,3.975-4.15c2.368,0,3.989,1.787,3.989,4.15s-1.621,4.15-3.989,4.15
			C202.261,86.162,200.649,84.375,200.649,82.012z M207.583,82.012c0-1.875-1.167-3.252-2.959-3.252
			c-1.802,0-2.944,1.377-2.944,3.252c0,1.865,1.143,3.252,2.944,3.252C206.416,85.264,207.583,83.877,207.583,82.012z"/>
		<path fill="#231F20" d="M219.434,86.016l-2.031-3.184h-1.611v3.184h-0.996v-8.018h3.218c1.47,0,2.524,0.938,2.524,2.412
			c0,1.445-0.996,2.236-2.09,2.334l2.163,3.271H219.434z M219.502,80.41c0-0.908-0.659-1.523-1.606-1.523h-2.104v3.066h2.104
			C218.843,81.953,219.502,81.318,219.502,80.41z"/>
		<path fill="#231F20" d="M222.871,86.016v-8.018h5.249v0.889h-4.253v2.588h4.17v0.889h-4.17v2.764h4.253v0.889H222.871z"/>
		<path fill="#231F20" d="M230.142,82.012c0-2.5,1.836-4.15,4.121-4.15c1.431,0,2.417,0.625,3.11,1.494l-0.791,0.508
			c-0.503-0.654-1.357-1.104-2.319-1.104c-1.753,0-3.091,1.328-3.091,3.252c0,1.895,1.338,3.252,3.091,3.252
			c0.962,0,1.753-0.449,2.163-0.859v-1.621h-2.764v-0.889h3.75v2.881c-0.747,0.84-1.841,1.396-3.149,1.396
			C231.978,86.172,230.142,84.502,230.142,82.012z"/>
		<path fill="#231F20" d="M239.795,86.016v-8.018h0.996v8.018H239.795z"/>
		<path fill="#231F20" d="M243.096,82.012c0-2.363,1.611-4.15,3.979-4.15s3.989,1.787,3.989,4.15s-1.621,4.15-3.989,4.15
			S243.096,84.375,243.096,82.012z M250.029,82.012c0-1.875-1.162-3.252-2.954-3.252c-1.802,0-2.944,1.377-2.944,3.252
			c0,1.865,1.143,3.252,2.944,3.252C248.867,85.264,250.029,83.877,250.029,82.012z"/>
		<path fill="#231F20" d="M259.043,86.016l-4.673-6.396v6.396h-0.996v-8.018h1.021l4.614,6.26v-6.26h0.996v8.018H259.043z"/>
		<path fill="#231F20" d="M268.359,86.016l-0.708-1.797h-3.989l-0.713,1.797h-1.138l3.232-8.018h1.235l3.223,8.018H268.359z
			 M265.654,79.023l-1.694,4.326h3.403L265.654,79.023z"/>
		<path fill="#231F20" d="M271.172,86.016v-8.018h0.996v7.129h3.726v0.889H271.172z"/>
		<path fill="#231F20" d="M281.855,86.016v-8.018h2.739c2.5,0,4.111,1.738,4.111,4.014c0,2.285-1.611,4.004-4.111,4.004H281.855z
			 M287.671,82.012c0-1.729-1.094-3.125-3.076-3.125h-1.743v6.24h1.743C286.543,85.127,287.671,83.73,287.671,82.012z"/>
		<path fill="#231F20" d="M291.025,86.016v-8.018h5.254v0.889h-4.258v2.588h4.17v0.889h-4.17v2.764h4.258v0.889H291.025z"/>
		<path fill="#231F20" d="M302.49,86.016v-8.018h5.254v0.889h-4.253v2.588h4.165v0.889h-4.165v2.764h4.253v0.889H302.49z"/>
		<path fill="#231F20" d="M309.609,84.883l0.596-0.771c0.518,0.605,1.387,1.152,2.515,1.152c1.431,0,1.885-0.762,1.885-1.387
			c0-2.07-4.746-0.918-4.746-3.779c0-1.318,1.177-2.236,2.764-2.236c1.216,0,2.163,0.43,2.837,1.133l-0.601,0.732
			c-0.601-0.674-1.44-0.957-2.319-0.957c-0.947,0-1.646,0.518-1.646,1.27c0,1.807,4.746,0.771,4.746,3.76
			c0,1.152-0.796,2.363-2.954,2.363C311.299,86.162,310.269,85.625,309.609,84.883z"/>
		<path fill="#231F20" d="M319.8,86.016v-7.129h-2.539v-0.889h6.079v0.889h-2.544v7.129H319.8z"/>
		<path fill="#231F20" d="M325.425,82.9v-4.902h1.006v4.883c0,1.465,0.781,2.383,2.261,2.383s2.271-0.918,2.271-2.383v-4.883h1.011
			v4.893c0,1.992-1.108,3.271-3.281,3.271C326.528,86.162,325.425,84.873,325.425,82.9z"/>
		<path fill="#231F20" d="M334.604,86.016v-8.018h2.739c2.5,0,4.111,1.738,4.111,4.014c0,2.285-1.611,4.004-4.111,4.004H334.604z
			 M340.42,82.012c0-1.729-1.094-3.125-3.076-3.125h-1.743v6.24h1.743C339.292,85.127,340.42,83.73,340.42,82.012z"/>
		<path fill="#231F20" d="M349.053,86.016l-0.713-1.797h-3.989l-0.708,1.797H342.5l3.232-8.018h1.24l3.218,8.018H349.053z
			 M346.348,79.023l-1.694,4.326h3.398L346.348,79.023z"/>
		<path fill="#231F20" d="M357.666,86.016l-4.673-6.396v6.396h-0.996v-8.018h1.021l4.614,6.26v-6.26h0.996v8.018H357.666z"/>
		<path fill="#231F20" d="M363.242,86.016v-7.129h-2.534v-0.889h6.079v0.889h-2.544v7.129H363.242z"/>
		<path fill="#231F20" d="M368.867,86.016v-8.018h5.254v0.889h-4.253v2.588h4.17v0.889h-4.17v2.764h4.253v0.889H368.867z"/>
		<path fill="#231F20" d="M375.986,84.883l0.601-0.771c0.513,0.605,1.382,1.152,2.51,1.152c1.431,0,1.885-0.762,1.885-1.387
			c0-2.07-4.746-0.918-4.746-3.779c0-1.318,1.177-2.236,2.764-2.236c1.216,0,2.163,0.43,2.837,1.133l-0.601,0.732
			c-0.601-0.674-1.44-0.957-2.319-0.957c-0.947,0-1.646,0.518-1.646,1.27c0,1.807,4.746,0.771,4.746,3.76
			c0,1.152-0.796,2.363-2.954,2.363C377.676,86.162,376.646,85.625,375.986,84.883z"/>
		<path fill="#231F20" d="M388.135,86.016v-8.018h2.739c2.5,0,4.111,1.738,4.111,4.014c0,2.285-1.611,4.004-4.111,4.004H388.135z
			 M393.95,82.012c0-1.729-1.094-3.125-3.076-3.125h-1.743v6.24h1.743C392.822,85.127,393.95,83.73,393.95,82.012z"/>
		<path fill="#231F20" d="M397.305,86.016v-8.018h5.254v0.889h-4.258v2.588h4.17v0.889h-4.17v2.764h4.258v0.889H397.305z"/>
		<path fill="#231F20" d="M408.77,86.016v-8.018h2.739c2.5,0,4.111,1.738,4.111,4.014c0,2.285-1.611,4.004-4.111,4.004H408.77z
			 M414.585,82.012c0-1.729-1.094-3.125-3.076-3.125h-1.743v6.24h1.743C413.457,85.127,414.585,83.73,414.585,82.012z"/>
		<path fill="#231F20" d="M417.939,86.016v-8.018h5.254v0.889h-4.258v2.588h4.17v0.889h-4.17v2.764h4.258v0.889H417.939z"/>
		<path fill="#231F20" d="M425.054,84.883l0.601-0.771c0.518,0.605,1.382,1.152,2.515,1.152c1.426,0,1.885-0.762,1.885-1.387
			c0-2.07-4.746-0.918-4.746-3.779c0-1.318,1.177-2.236,2.764-2.236c1.211,0,2.163,0.43,2.837,1.133l-0.601,0.732
			c-0.601-0.674-1.445-0.957-2.319-0.957c-0.952,0-1.646,0.518-1.646,1.27c0,1.807,4.746,0.771,4.746,3.76
			c0,1.152-0.796,2.363-2.959,2.363C426.748,86.162,425.713,85.625,425.054,84.883z"/>
		<path fill="#231F20" d="M433.335,86.016v-8.018h1.001v8.018H433.335z"/>
		<path fill="#231F20" d="M436.641,82.012c0-2.5,1.841-4.15,4.121-4.15c1.431,0,2.417,0.625,3.115,1.494l-0.796,0.508
			c-0.503-0.654-1.357-1.104-2.319-1.104c-1.753,0-3.086,1.328-3.086,3.252c0,1.895,1.333,3.252,3.086,3.252
			c0.962,0,1.758-0.449,2.163-0.859v-1.621h-2.764v-0.889h3.75v2.881c-0.747,0.84-1.841,1.396-3.149,1.396
			C438.481,86.172,436.641,84.502,436.641,82.012z"/>
		<path fill="#231F20" d="M451.963,86.016l-4.673-6.396v6.396h-1.001v-8.018h1.025l4.614,6.26v-6.26h0.996v8.018H451.963z"/>
		<path fill="#231F20" d="M459.102,82.012c0-2.461,1.816-4.15,4.121-4.15c1.421,0,2.407,0.674,3.042,1.592l-0.83,0.469
			c-0.454-0.684-1.294-1.162-2.212-1.162c-1.753,0-3.086,1.328-3.086,3.252c0,1.895,1.333,3.252,3.086,3.252
			c0.918,0,1.758-0.488,2.212-1.162l0.845,0.459c-0.674,0.928-1.636,1.602-3.057,1.602
			C460.918,86.162,459.102,84.473,459.102,82.012z"/>
		<path fill="#231F20" d="M467.983,82.012c0-2.363,1.611-4.15,3.979-4.15s3.989,1.787,3.989,4.15s-1.621,4.15-3.989,4.15
			S467.983,84.375,467.983,82.012z M474.917,82.012c0-1.875-1.167-3.252-2.954-3.252c-1.802,0-2.944,1.377-2.944,3.252
			c0,1.865,1.143,3.252,2.944,3.252C473.75,85.264,474.917,83.877,474.917,82.012z"/>
		<path fill="#231F20" d="M477.324,86.25l2.847-8.496h0.708l-2.847,8.496H477.324z"/>
		<path fill="#231F20" d="M489.424,86.016v-6.748l-2.715,6.748h-0.41l-2.725-6.748v6.748h-1.001v-8.018h1.431l2.5,6.172l2.49-6.172
			h1.426v8.018H489.424z"/>
		<path fill="#231F20" d="M492.729,82.012c0-2.5,1.841-4.15,4.121-4.15c1.431,0,2.417,0.625,3.115,1.494l-0.796,0.508
			c-0.503-0.654-1.357-1.104-2.319-1.104c-1.753,0-3.086,1.328-3.086,3.252c0,1.895,1.333,3.252,3.086,3.252
			c0.962,0,1.758-0.449,2.163-0.859v-1.621h-2.764v-0.889H500v2.881c-0.742,0.84-1.836,1.396-3.149,1.396
			C494.57,86.172,492.729,84.502,492.729,82.012z"/>
	</g>
	<g>
		<path fill="#00FF00" d="M19.497,43.691c6.157-6.162,14.346-9.551,23.057-9.551h0.005v0.01c2.642,0,5.308,0.322,7.935,0.977
			c1.084-0.84,2.212-1.621,3.369-2.344c-3.687-1.221-7.51-1.816-11.304-1.807v-0.029c0,0,0,0-0.005,0
			c-9.561,0-18.55,3.73-25.312,10.488c-0.962,0.957-1.982,1.855-3.052,2.686c1.099,0.518,2.227,0.967,3.379,1.348
			C18.228,44.893,18.877,44.307,19.497,43.691z M10.308,34.141v0.01c2.646,0,5.308,0.322,7.935,0.977
			c1.089-0.84,2.212-1.621,3.369-2.344c-3.687-1.221-7.505-1.816-11.304-1.807v-0.029l0,0c-3.081,0-6.104,0.4-9.014,1.143
			c-0.288,1.162-0.532,2.334-0.728,3.525C3.682,34.648,6.953,34.141,10.308,34.141L10.308,34.141z M74.805,30.947L74.805,30.947
			c-9.565,0-18.555,3.73-25.312,10.488c-0.962,0.957-1.982,1.855-3.052,2.686c1.094,0.518,2.222,0.967,3.374,1.348
			c0.664-0.576,1.313-1.162,1.929-1.777c6.157-6.162,14.351-9.551,23.062-9.551l0,0v0.01c2.646,0,5.308,0.322,7.935,0.977
			c0.498-0.381,1.006-0.752,1.514-1.113c-0.127-0.635-0.273-1.27-0.43-1.895c-2.969-0.762-6.001-1.143-9.019-1.143V30.947z
			 M74.805,46.709c-2.505-1.426-4.849-3.184-6.938-5.273c-0.62-0.625-1.279-1.211-1.943-1.787c-1.152,0.371-2.28,0.82-3.374,1.338
			c1.074,0.83,2.1,1.738,3.066,2.705c2.729,2.725,5.835,4.951,9.189,6.65l0,0c2.808,1.416,5.796,2.451,8.906,3.086
			c0.269-1.025,0.498-2.07,0.693-3.125c-3.354-0.684-6.602-1.885-9.6-3.584V46.709z M84.927,38.613
			c-1.104,0.869-2.173,1.807-3.188,2.822c-0.962,0.957-1.982,1.855-3.052,2.686c1.099,0.518,2.227,0.967,3.379,1.348
			c0.659-0.576,1.309-1.162,1.924-1.777c0.366-0.371,0.742-0.723,1.123-1.074c0-0.02,0-0.039,0-0.059
			C85.112,41.221,85.049,39.912,84.927,38.613z M10.308,50.342L10.308,50.342c4.937,2.49,10.425,3.818,16.123,3.818
			c3.833,0,7.671-0.635,11.304-1.826C36.577,51.611,35.459,50.84,34.37,50c-8.237,2.061-16.855,0.801-24.062-3.281v-0.01
			c-2.505-1.426-4.849-3.184-6.938-5.273c-0.62-0.625-1.274-1.211-1.943-1.787c-0.459,0.146-0.908,0.312-1.357,0.479
			C0.024,40.928,0,41.738,0,42.559c0,0.02,0,0.049,0,0.078c0.381,0.342,0.757,0.693,1.118,1.055
			C3.848,46.416,6.953,48.643,10.308,50.342z M58.677,54.16c3.833,0,7.676-0.635,11.304-1.826c-1.152-0.723-2.275-1.494-3.364-2.334
			c-8.237,2.061-16.851,0.801-24.058-3.281v-0.01c-2.51-1.426-4.849-3.184-6.938-5.273c-0.625-0.625-1.279-1.211-1.948-1.787
			c-1.152,0.371-2.275,0.82-3.369,1.338c1.074,0.83,2.1,1.738,3.066,2.705c2.729,2.725,5.83,4.951,9.189,6.65l0,0
			C47.49,52.832,52.979,54.16,58.677,54.16z M2.119,50c-0.469,0.117-0.938,0.225-1.411,0.312c0.19,1.055,0.425,2.09,0.693,3.105
			c1.382-0.283,2.749-0.645,4.087-1.084C4.331,51.611,3.208,50.84,2.119,50z M10.308,26.855v0.029
			c5.449,0,10.933,1.094,16.104,3.369c5.02-2.217,10.488-3.398,16.143-3.398h0.005v0.029c5.444,0,10.933,1.094,16.104,3.369
			c5.015-2.217,10.488-3.398,16.143-3.398l0,0v0.029c2.539,0,5.088,0.244,7.607,0.723C76.362,11.475,60.801,0,42.559,0
			C24.321,0,8.77,11.465,2.71,27.578C5.186,27.1,7.729,26.855,10.308,26.855L10.308,26.855z M10.308,38.232
			c-1.372,0-2.729,0.098-4.062,0.293c0.01,0,0.015,0.01,0.024,0.02c1.25,1.25,2.607,2.363,4.038,3.34
			c1.44-0.986,2.798-2.1,4.038-3.34c0.005-0.01,0.005-0.01,0.01-0.01c-1.348-0.195-2.7-0.283-4.048-0.283V38.232L10.308,38.232z
			 M74.805,54.863H74.8c-5.039,2.217-10.591,3.389-16.123,3.389c-5.649,0-11.108-1.172-16.118-3.379v-0.01c-0.005,0-0.005,0-0.01,0
			c-5.034,2.217-10.586,3.389-16.118,3.389c-5.649,0-11.113-1.172-16.123-3.379v-0.01c0,0,0,0-0.005,0
			c-2.451,1.084-5.029,1.914-7.661,2.48c6.011,16.211,21.611,27.764,39.917,27.764c18.296,0,33.896-11.543,39.907-27.754
			c-2.642-0.566-5.205-1.406-7.661-2.48V54.863z M30.479,46.592c0,0-0.005,0-0.01-0.01c-1.245-1.24-2.598-2.363-4.038-3.35
			c-1.431,0.977-2.788,2.1-4.038,3.35c-0.005,0-0.005,0-0.005,0.01C25.049,46.963,27.773,46.982,30.479,46.592z M74.805,38.232
			c-1.372,0-2.729,0.098-4.062,0.293c0.005,0,0.015,0.01,0.02,0.02c1.255,1.25,2.607,2.363,4.043,3.34
			c1.436-0.986,2.793-2.1,4.038-3.34c0-0.01,0.005-0.01,0.01-0.01c-1.353-0.195-2.7-0.283-4.048-0.283V38.232L74.805,38.232z
			 M58.677,43.232c-1.431,0.977-2.783,2.1-4.038,3.35c0,0,0,0,0,0.01c2.656,0.371,5.381,0.391,8.086,0c0,0-0.005,0-0.005-0.01
			C61.475,45.342,60.117,44.219,58.677,43.232z M42.554,38.232c-1.372,0-2.725,0.098-4.058,0.293c0.005,0,0.015,0.01,0.02,0.02
			c1.25,1.25,2.607,2.363,4.043,3.34c1.436-0.986,2.793-2.1,4.038-3.34c0-0.01,0.005-0.01,0.005-0.01
			c-1.348-0.195-2.7-0.283-4.043-0.283v-0.02C42.559,38.232,42.559,38.232,42.554,38.232z"/>
	</g>
	<g>
		<path fill="#231F20" d="M142.471,43.984c0.166-0.137,0.322-0.283,0.483-0.43c0.073-0.068,0.146-0.137,0.22-0.205
			c0.142-0.137,0.273-0.283,0.41-0.42c0.078-0.088,0.166-0.176,0.244-0.264c0.122-0.137,0.239-0.273,0.352-0.42
			c0.088-0.098,0.171-0.205,0.249-0.303c0.107-0.137,0.21-0.273,0.308-0.42c0.083-0.117,0.161-0.225,0.239-0.342
			c0.093-0.137,0.181-0.283,0.264-0.42c0.078-0.127,0.151-0.254,0.225-0.381c0.078-0.137,0.156-0.283,0.225-0.42
			c0.073-0.137,0.137-0.273,0.205-0.42c0.063-0.137,0.127-0.273,0.186-0.41c0.063-0.156,0.117-0.303,0.176-0.459
			c0.049-0.137,0.103-0.273,0.151-0.41c0.049-0.166,0.098-0.332,0.146-0.488c0.034-0.137,0.078-0.273,0.107-0.41
			c0.049-0.176,0.078-0.361,0.117-0.537c0.024-0.127,0.054-0.254,0.073-0.391c0.034-0.205,0.054-0.41,0.078-0.615
			c0.015-0.117,0.029-0.225,0.039-0.332c0.024-0.322,0.039-0.645,0.039-0.977c0-7.031-5.791-12.646-12.886-12.646h-16.074
			c-0.649,0-1.123,0.527-1.123,1.123v39.131c0,0.586,0.474,1.123,1.123,1.123h3.843c0.591,0,1.123-0.537,1.123-1.123V48.018
			c0.19-0.947,1.055-0.967,1.055-0.967v-0.01h7.163c0.493,0.01,0.776,0.244,0.938,0.459l7.627,15.205
			c0.122,0.234,0.474,0.537,0.947,0.537h4.609c1.006,0,1.421-0.947,1.006-1.719l-7.637-14.16h0.005
			c-0.2-0.967,0.61-1.318,0.61-1.318l-0.01-0.01c1.094-0.537,2.1-1.182,3.003-1.934C142.373,44.062,142.422,44.023,142.471,43.984z
			 M124.121,41.963c-0.967-0.186-0.986-1.064-0.986-1.064l-0.005,0.01V28.574c0.19-0.957,1.06-0.977,1.06-0.977h9.463
			c3.838,0,7.207,3.193,7.207,7.031c0,4.082-3.369,7.334-7.207,7.334H124.121z"/>
		<path fill="#231F20" d="M191.636,21.865h-23.643c-0.649,0-1.123,0.527-1.123,1.123v39.131c0,0.586,0.474,1.123,1.123,1.123h23.643
			c0.649,0,1.123-0.537,1.123-1.123v-3.252c0-0.596-0.474-1.123-1.123-1.123H173.94v-0.01c-0.786-0.146-0.947-0.742-0.981-0.967
			V45.986c0.186-0.85,0.903-0.947,1.025-0.947h14.756c0.591,0,1.123-0.479,1.123-1.123v-3.311c0-0.596-0.532-1.123-1.123-1.123
			h-14.8c-0.801-0.156-0.952-0.771-0.981-0.986V28.369c0.171-0.791,0.806-0.928,0.996-0.947h17.681c0.649,0,1.123-0.527,1.123-1.123
			v-3.311C192.759,22.393,192.285,21.865,191.636,21.865z"/>
		<path fill="#231F20" d="M234.487,57.744h-15.029c-0.815-0.156-0.962-0.791-0.986-0.996v-33.76c0-0.596-0.532-1.123-1.123-1.123
			h-3.901c-0.649,0-1.123,0.527-1.123,1.123v39.131c0,0.586,0.474,1.123,1.123,1.123h21.04c0.654,0,1.128-0.537,1.128-1.123v-3.252
			C235.615,58.271,235.142,57.744,234.487,57.744z"/>
		<path fill="#231F20" d="M257.485,21.865h-3.901c-0.591,0-1.123,0.527-1.123,1.123v39.131c0,0.586,0.532,1.123,1.123,1.123h3.901
			c0.591,0,1.118-0.537,1.118-1.123V22.988C258.604,22.393,258.076,21.865,257.485,21.865z"/>
		<path fill="#231F20" d="M310.742,53.838c-0.356-0.293-0.889-0.352-1.421,0.059c-2.837,2.188-5.854,3.906-10.166,3.906
			c-8.452,0-14.897-7.031-14.897-15.312c0-8.271,6.387-15.361,14.839-15.361c3.662,0,7.446,1.533,10.225,3.955
			c0.532,0.537,1.064,0.537,1.479,0l2.598-2.656c0.474-0.479,0.474-1.182-0.059-1.66c-4.019-3.486-8.335-5.498-14.302-5.498
			c-11.821,0-21.338,9.521-21.338,21.338c0,11.826,9.517,21.221,21.338,21.221c5.259,0,10.342-1.826,14.36-5.732
			c0.415-0.41,0.532-1.182,0.059-1.592L310.742,53.838z"/>
		<path fill="#231F20" d="M340.825,17.197c0.239,0.527,0.649,0.645,1.421,0.293l9.927-4.258c0.474-0.234,0.713-0.82,0.356-1.416
			l-1.357-2.598c-0.298-0.537-1.182-0.42-1.538-0.176l-9.277,5.371c-0.298,0.186-0.591,0.654-0.356,1.123L340.825,17.197z"/>
		<path fill="#231F20" d="M347.686,21.924c-0.181-0.352-0.713-0.654-1.006-0.654h-0.591c-0.298,0-0.83,0.303-1.006,0.654
			l-18.145,39.775c-0.356,0.771,0.117,1.543,1.001,1.543h3.726c0.708,0,1.182-0.479,1.362-0.889
			c1.182-2.715,2.422-5.381,3.604-8.096h19.326l3.667,8.096c0.234,0.527,0.649,0.889,1.357,0.889h3.726
			c0.884,0,1.357-0.771,1.006-1.543L347.686,21.924z M352.271,49.17h-11.89c-0.947-0.195-0.967-1.055-0.967-1.055h-0.01
			l6.162-13.838l0.029,0.029c0.693-0.518,1.284-0.146,1.426-0.039l6.25,13.926C353.115,49.014,352.471,49.15,352.271,49.17z"/>
		<path fill="#231F20" d="M412.349,34.512c0-7.031-5.796-12.646-12.886-12.646h-16.079c-0.649,0-1.123,0.527-1.123,1.123v39.131
			c0,0.586,0.474,1.123,1.123,1.123h3.843c0.591,0,1.123-0.537,1.123-1.123V48.037l0.02,0.01c0.186-0.977,1.064-0.996,1.064-0.996
			v-0.01h7.148v0.01c0.469,0.02,0.747,0.225,0.913,0.43l0.225,0.449c0,0.01,0.005,0.02,0.005,0.02h0.005l7.407,14.756
			c0.117,0.234,0.469,0.537,0.947,0.537h4.609c1.006,0,1.416-0.947,1.006-1.719l-7.651-14.18c-0.176-0.977,0.64-1.309,0.64-1.309
			h-0.02C409.233,43.799,412.349,39.561,412.349,34.512z M398.989,41.963h-9.521l0.005-0.02c-0.977-0.176-0.991-1.064-0.991-1.064
			l-0.015,0.029V28.604h0.01c0.186-0.977,1.064-0.996,1.064-0.996v-0.01h9.448c3.843,0,7.212,3.193,7.212,7.031
			C406.201,38.711,402.832,41.963,398.989,41.963z"/>
		<path fill="#231F20" d="M437.231,21.865h-3.901c-0.591,0-1.123,0.527-1.123,1.123v39.131c0,0.586,0.532,1.123,1.123,1.123h3.901
			c0.591,0,1.123-0.537,1.123-1.123V22.988C438.354,22.393,437.822,21.865,437.231,21.865z"/>
		<path fill="#231F20" d="M478.667,21.27c-11.821,0-21.216,9.521-21.216,21.338c0,11.826,9.395,21.221,21.216,21.221
			s21.279-9.395,21.279-21.221C499.946,30.791,490.488,21.27,478.667,21.27z M478.667,57.92c-8.394,0-15.308-6.855-15.308-15.312
			c0-8.389,6.914-15.42,15.308-15.42c8.452,0,15.366,7.031,15.366,15.42C494.033,51.064,487.119,57.92,478.667,57.92z"/>
	</g>
</g>
</svg>
