<?xml version="1.0" encoding="utf-8"?>
<!-- Generator: Adobe Illustrator 16.0.0, SVG Export Plug-In . SVG Version: 6.00 Build 0)  -->
<!DOCTYPE svg PUBLIC "-//W3C//DTD SVG 1.1//EN" "http://www.w3.org/Graphics/SVG/1.1/DTD/svg11.dtd">
<svg version="1.1" id="Layer_1" xmlns="http://www.w3.org/2000/svg" xmlns:xlink="http://www.w3.org/1999/xlink" x="0px" y="0px"
	 width="368.832px" height="66.576px" viewBox="0 0 368.832 66.576" enable-background="new 0 0 368.832 66.576"
	 xml:space="preserve">
<g>
	<path fill="#231F20" d="M88.679,61.317v-4.891l-0.94,0.995l-0.434-0.438l1.459-1.51h0.64v5.846L88.679,61.317L88.679,61.317z"/>
	<path fill="#231F20" d="M91.087,58.397c0-1.431,0.629-3.01,2.229-3.01c1.595,0,2.232,1.579,2.232,3.01
		c0,1.418-0.64,3.024-2.232,3.024C91.716,61.423,91.087,59.815,91.087,58.397z M94.808,58.397c0-1.166-0.378-2.358-1.491-2.358
		c-1.108,0-1.486,1.192-1.486,2.358c0,1.168,0.377,2.373,1.486,2.373C94.431,60.771,94.808,59.565,94.808,58.397z"/>
	<path fill="#231F20" d="M96.899,57.082c0-0.795,0.553-1.442,1.419-1.442c0.884,0,1.427,0.649,1.427,1.442
		c0,0.789-0.543,1.444-1.427,1.444C97.451,58.526,96.899,57.871,96.899,57.082z M99.23,57.082c0-0.565-0.335-1.009-0.911-1.009
		c-0.568,0-0.894,0.439-0.894,1.009c0,0.573,0.324,1.026,0.894,1.026C98.894,58.108,99.23,57.651,99.23,57.082z"/>
	<path fill="#231F20" d="M104.15,61.317v-5.844h3.823v0.65h-3.1v1.885h3.039v0.646h-3.039v2.014h3.1v0.648H104.15L104.15,61.317z"/>
	<path fill="#231F20" d="M113.814,61.317l-3.403-4.662v4.662h-0.726v-5.844h0.742l3.363,4.561v-4.561h0.726v5.844H113.814z"/>
	<path fill="#231F20" d="M116.197,58.397c0-1.795,1.322-3.022,3-3.022c1.032,0,1.75,0.491,2.217,1.162l-0.604,0.342
		c-0.335-0.501-0.947-0.849-1.612-0.849c-1.276,0-2.247,0.968-2.247,2.369c0,1.379,0.971,2.371,2.247,2.371
		c0.665,0,1.277-0.355,1.612-0.848l0.613,0.333c-0.493,0.677-1.193,1.167-2.226,1.167C117.521,61.423,116.197,60.192,116.197,58.397
		z"/>
	<path fill="#231F20" d="M122.667,58.397c0-1.72,1.172-3.022,2.896-3.022c1.726,0,2.906,1.304,2.906,3.022
		c0,1.72-1.181,3.024-2.906,3.024C123.841,61.423,122.667,60.119,122.667,58.397z M127.718,58.397c0-1.365-0.85-2.371-2.155-2.371
		c-1.312,0-2.14,1.006-2.14,2.371c0,1.358,0.83,2.373,2.14,2.373C126.868,60.771,127.718,59.758,127.718,58.397z"/>
	<path fill="#231F20" d="M134.284,61.317l-3.404-4.662v4.662h-0.727v-5.844h0.745l3.361,4.561v-4.561h0.723v5.844H134.284z"/>
	<path fill="#231F20" d="M138.346,61.317v-5.192H136.5v-0.649h4.429v0.649h-1.854v5.192H138.346z"/>
	<path fill="#231F20" d="M145.824,61.317l-1.479-2.321h-1.171v2.321h-0.729v-5.844h2.351c1.066,0,1.837,0.685,1.837,1.758
		c0,1.054-0.73,1.631-1.527,1.701l1.576,2.381L145.824,61.317L145.824,61.317z M145.876,57.231c0-0.662-0.483-1.105-1.172-1.105
		h-1.531v2.23h1.531C145.392,58.356,145.876,57.896,145.876,57.231z"/>
	<path fill="#231F20" d="M148.093,58.397c0-1.72,1.174-3.022,2.896-3.022c1.727,0,2.905,1.304,2.905,3.022
		c0,1.72-1.179,3.024-2.905,3.024C149.267,61.423,148.093,60.119,148.093,58.397z M153.144,58.397c0-1.365-0.851-2.371-2.156-2.371
		c-1.312,0-2.146,1.006-2.146,2.371c0,1.358,0.834,2.373,2.146,2.373C152.294,60.771,153.144,59.758,153.144,58.397z"/>
	<path fill="#231F20" d="M161.777,61.317l-1.479-2.321h-1.172v2.321h-0.728v-5.844h2.347c1.069,0,1.838,0.685,1.838,1.758
		c0,1.054-0.728,1.631-1.523,1.701l1.574,2.381L161.777,61.317L161.777,61.317z M161.827,57.231c0-0.662-0.479-1.105-1.17-1.105
		h-1.532v2.23h1.532C161.347,58.356,161.827,57.896,161.827,57.231z"/>
	<path fill="#231F20" d="M164.281,61.317v-5.844h3.823v0.65h-3.098v1.885h3.038v0.646h-3.038v2.014h3.098v0.648H164.281
		L164.281,61.317z"/>
	<path fill="#231F20" d="M169.579,58.397c0-1.818,1.337-3.022,3-3.022c1.042,0,1.762,0.456,2.267,1.091l-0.576,0.368
		c-0.367-0.476-0.989-0.806-1.689-0.806c-1.276,0-2.251,0.969-2.251,2.371c0,1.379,0.975,2.371,2.251,2.371
		c0.701,0,1.277-0.328,1.576-0.629v-1.18h-2.013v-0.648h2.732v2.101c-0.545,0.61-1.343,1.017-2.295,1.017
		C170.916,61.429,169.579,60.214,169.579,58.397z"/>
	<path fill="#231F20" d="M176.611,61.317v-5.844h0.726v5.844H176.611z"/>
	<path fill="#231F20" d="M179.016,58.397c0-1.72,1.173-3.022,2.899-3.022c1.723,0,2.902,1.304,2.902,3.022
		c0,1.72-1.18,3.024-2.902,3.024C180.189,61.423,179.016,60.119,179.016,58.397z M184.066,58.397c0-1.365-0.847-2.371-2.15-2.371
		c-1.313,0-2.146,1.006-2.146,2.371c0,1.358,0.834,2.373,2.146,2.373C183.219,60.771,184.066,59.758,184.066,58.397z"/>
	<path fill="#231F20" d="M190.633,61.317l-3.406-4.662v4.662h-0.725v-5.844h0.745l3.36,4.561v-4.561h0.726v5.844H190.633z"/>
	<path fill="#231F20" d="M197.417,61.317l-0.518-1.312h-2.901l-0.521,1.312h-0.831l2.358-5.844h0.896l2.352,5.844H197.417z
		 M195.446,56.224l-1.229,3.15h2.477L195.446,56.224z"/>
	<path fill="#231F20" d="M199.469,61.317v-5.844h0.725v5.195h2.717v0.646h-3.441V61.317z"/>
	<path fill="#231F20" d="M207.252,61.317v-5.844h1.996c1.819,0,2.993,1.269,2.993,2.924c0,1.666-1.173,2.92-2.993,2.92H207.252z
		 M211.488,58.397c0-1.256-0.796-2.272-2.238-2.272h-1.271v4.545h1.271C210.667,60.67,211.488,59.653,211.488,58.397z"/>
	<path fill="#231F20" d="M213.929,61.317v-5.844h3.827v0.65h-3.102v1.885h3.037v0.646h-3.037v2.014h3.102v0.648H213.929
		L213.929,61.317z"/>
	<path fill="#231F20" d="M222.283,61.317v-5.844h3.827v0.65h-3.098v1.885h3.034v0.646h-3.034v2.014h3.098v0.648H222.283
		L222.283,61.317z"/>
	<path fill="#231F20" d="M227.468,60.492l0.435-0.562c0.381,0.438,1.011,0.84,1.834,0.84c1.042,0,1.37-0.558,1.37-1.014
		c0-1.508-3.455-0.668-3.455-2.751c0-0.96,0.858-1.631,2.014-1.631c0.888,0,1.576,0.312,2.068,0.827l-0.438,0.531
		c-0.439-0.492-1.05-0.694-1.692-0.694c-0.688,0-1.197,0.377-1.197,0.925c0,1.317,3.455,0.561,3.455,2.739
		c0,0.84-0.577,1.72-2.148,1.72C228.698,61.423,227.949,61.033,227.468,60.492z"/>
	<path fill="#231F20" d="M234.894,61.317v-5.192h-1.852v-0.649h4.429v0.649h-1.852v5.192H234.894z"/>
	<path fill="#231F20" d="M238.99,59.048v-3.572h0.733v3.558c0,1.069,0.569,1.737,1.648,1.737c1.078,0,1.653-0.668,1.653-1.737
		v-3.558h0.735v3.563c0,1.453-0.808,2.384-2.389,2.384C239.793,61.423,238.99,60.481,238.99,59.048z"/>
	<path fill="#231F20" d="M245.677,61.317v-5.844h1.994c1.822,0,2.996,1.269,2.996,2.924c0,1.666-1.174,2.92-2.996,2.92H245.677z
		 M249.916,58.397c0-1.256-0.8-2.272-2.244-2.272h-1.269v4.545h1.269C249.091,60.67,249.916,59.653,249.916,58.397z"/>
	<path fill="#231F20" d="M256.204,61.317l-0.521-1.312h-2.906l-0.516,1.312h-0.833l2.354-5.844h0.903l2.344,5.844H256.204z
		 M254.234,56.224l-1.234,3.15h2.478L254.234,56.224z"/>
	<path fill="#231F20" d="M262.478,61.317l-3.405-4.662v4.662h-0.725v-5.844h0.743l3.362,4.561v-4.561h0.727v5.844H262.478z"/>
	<path fill="#231F20" d="M266.539,61.317v-5.192h-1.848v-0.649h4.429v0.649h-1.852v5.192H266.539z"/>
	<path fill="#231F20" d="M270.637,61.317v-5.844h3.827v0.65h-3.1v1.885h3.038v0.646h-3.038v2.014h3.1v0.648H270.637L270.637,61.317z
		"/>
	<path fill="#231F20" d="M275.823,60.492l0.439-0.562c0.373,0.438,1.008,0.84,1.827,0.84c1.042,0,1.374-0.558,1.374-1.014
		c0-1.508-3.458-0.668-3.458-2.751c0-0.96,0.855-1.631,2.016-1.631c0.885,0,1.573,0.312,2.065,0.827l-0.439,0.531
		c-0.437-0.492-1.045-0.694-1.686-0.694c-0.689,0-1.202,0.377-1.202,0.925c0,1.317,3.46,0.561,3.46,2.739
		c0,0.84-0.581,1.72-2.153,1.72C277.056,61.423,276.307,61.033,275.823,60.492z"/>
	<path fill="#231F20" d="M284.676,61.317v-5.844h1.993c1.822,0,2.994,1.269,2.994,2.924c0,1.666-1.172,2.92-2.994,2.92H284.676z
		 M288.908,58.397c0-1.256-0.795-2.272-2.239-2.272h-1.27v4.545h1.27C288.09,60.67,288.908,59.653,288.908,58.397z"/>
	<path fill="#231F20" d="M291.355,61.317v-5.844h3.827v0.65h-3.101v1.885h3.036v0.646h-3.036v2.014h3.101v0.648H291.355
		L291.355,61.317z"/>
	<path fill="#231F20" d="M299.707,61.317v-5.844h1.996c1.82,0,2.99,1.269,2.99,2.924c0,1.666-1.17,2.92-2.99,2.92H299.707z
		 M303.943,58.397c0-1.256-0.797-2.272-2.238-2.272h-1.271v4.545h1.271C303.121,60.67,303.943,59.653,303.943,58.397z"/>
	<path fill="#231F20" d="M306.386,61.317v-5.844h3.827v0.65h-3.101v1.885h3.037v0.646h-3.037v2.014h3.101v0.648H306.386
		L306.386,61.317z"/>
	<path fill="#231F20" d="M311.57,60.492l0.438-0.562c0.379,0.438,1.006,0.84,1.833,0.84c1.041,0,1.373-0.558,1.373-1.014
		c0-1.508-3.457-0.668-3.457-2.751c0-0.96,0.854-1.631,2.012-1.631c0.884,0,1.577,0.312,2.068,0.827l-0.438,0.531
		c-0.438-0.492-1.053-0.694-1.688-0.694c-0.695,0-1.2,0.377-1.2,0.925c0,1.317,3.458,0.561,3.458,2.739c0,0.84-0.58,1.72-2.153,1.72
		C312.802,61.423,312.049,61.033,311.57,60.492z"/>
	<path fill="#231F20" d="M317.604,61.317v-5.844h0.729v5.844H317.604z"/>
	<path fill="#231F20" d="M320.012,58.397c0-1.818,1.34-3.022,3.001-3.022c1.042,0,1.76,0.456,2.271,1.091l-0.582,0.368
		c-0.367-0.476-0.985-0.806-1.688-0.806c-1.277,0-2.247,0.969-2.247,2.371c0,1.379,0.97,2.371,2.247,2.371
		c0.702,0,1.28-0.328,1.575-0.629v-1.18h-2.016v-0.648h2.733v2.101c-0.546,0.61-1.341,1.017-2.294,1.017
		C321.351,61.429,320.012,60.214,320.012,58.397z"/>
	<path fill="#231F20" d="M331.172,61.317l-3.403-4.662v4.662h-0.729v-5.844h0.745l3.362,4.561v-4.561h0.725v5.844H331.172z"/>
	<path fill="#231F20" d="M336.372,58.397c0-1.795,1.323-3.022,3.003-3.022c1.034,0,1.754,0.491,2.217,1.162l-0.605,0.342
		c-0.331-0.501-0.942-0.849-1.609-0.849c-1.277,0-2.247,0.968-2.247,2.369c0,1.379,0.97,2.371,2.247,2.371
		c0.667,0,1.278-0.355,1.609-0.848l0.614,0.333c-0.49,0.677-1.19,1.167-2.226,1.167C337.697,61.423,336.372,60.192,336.372,58.397z"
		/>
	<path fill="#231F20" d="M342.842,58.397c0-1.72,1.176-3.022,2.897-3.022c1.728,0,2.908,1.304,2.908,3.022
		c0,1.72-1.182,3.024-2.908,3.024C344.018,61.423,342.842,60.119,342.842,58.397z M347.895,58.397c0-1.365-0.851-2.371-2.153-2.371
		c-1.312,0-2.144,1.006-2.144,2.371c0,1.358,0.833,2.373,2.144,2.373C347.044,60.771,347.895,59.758,347.895,58.397z"/>
	<path fill="#231F20" d="M349.647,61.485l2.076-6.188h0.516l-2.076,6.188H349.647z"/>
	<path fill="#231F20" d="M358.462,61.317v-4.916l-1.979,4.916h-0.298l-1.987-4.916v4.916h-0.729v-5.844h1.043l1.821,4.495
		l1.812-4.495h1.04v5.844H358.462z"/>
	<path fill="#231F20" d="M360.869,58.397c0-1.818,1.343-3.022,3.002-3.022c1.042,0,1.762,0.456,2.271,1.091l-0.579,0.368
		c-0.367-0.476-0.989-0.806-1.69-0.806c-1.277,0-2.247,0.969-2.247,2.371c0,1.379,0.97,2.371,2.247,2.371
		c0.701,0,1.28-0.328,1.576-0.629v-1.18h-2.015v-0.648h2.732v2.101c-0.541,0.61-1.34,1.017-2.294,1.017
		C362.212,61.429,360.869,60.214,360.869,58.397z"/>
</g>
<path fill="#EC661C" d="M40.72,40.801c-2.739-1.79-5.381-4.136-7.986-6.454c-3.541-3.15-6.974-6.201-10.489-7.771
	c-0.036-0.014-0.07-0.031-0.105-0.047c-1.883-0.825-3.792-1.218-5.754-0.968c2.795,1.812,5.483,4.2,8.134,6.56
	C29.969,36.968,35.156,41.578,40.72,40.801z M20.333,40.801c-2.741-1.79-5.381-4.136-7.985-6.454
	c-3.129-2.784-6.174-5.488-9.266-7.163C2.837,28.34,2.66,29.521,2.55,30.72c0.529,0.466,1.056,0.934,1.583,1.401
	C9.581,36.968,14.767,41.578,20.333,40.801z M10.137,40.801c-2.64-1.725-5.188-3.968-7.702-6.203
	c0.049,1.535,0.209,3.04,0.474,4.511C5.282,40.431,7.673,41.144,10.137,40.801z M50.915,40.801c-2.741-1.79-5.381-4.136-7.986-6.454
	c-3.541-3.15-6.974-6.201-10.49-7.771c-0.036-0.014-0.07-0.031-0.104-0.047c-1.883-0.825-3.792-1.218-5.755-0.969
	c2.795,1.812,5.483,4.201,8.136,6.561C40.163,36.969,45.351,41.578,50.915,40.801z M12.052,26.577
	c-0.037-0.015-0.072-0.032-0.107-0.049c-1.884-0.825-3.792-1.217-5.753-0.968c2.795,1.812,5.483,4.201,8.135,6.561
	c5.448,4.847,10.635,9.457,16.2,8.68c-2.741-1.79-5.381-4.136-7.986-6.454C19,31.197,15.567,28.146,12.052,26.577z M54.643,42.804
	c-0.023,0.01-0.045,0.021-0.069,0.028c-1.705,0.741-3.352,1.069-4.951,1.069c-1.779,0.001-3.499-0.407-5.173-1.098
	c-0.022,0.01-0.046,0.021-0.07,0.028c-1.705,0.741-3.353,1.069-4.951,1.069c-1.779,0.001-3.499-0.407-5.172-1.097
	c-0.023,0.009-0.047,0.02-0.07,0.027c-1.706,0.741-3.353,1.069-4.952,1.069c-1.779,0.001-3.499-0.407-5.172-1.098
	c-0.024,0.01-0.046,0.021-0.07,0.028c-1.705,0.741-3.354,1.069-4.952,1.069c-1.779,0.001-3.499-0.407-5.173-1.097
	c-0.023,0.009-0.045,0.02-0.069,0.027c-1.705,0.741-3.353,1.069-4.952,1.069c-1.722,0.001-3.389-0.384-5.011-1.035
	c3.943,12.561,15.676,21.673,29.538,21.673c13.614,0,25.174-8.787,29.319-20.999c-0.975,0.243-1.935,0.361-2.875,0.361
	C58.037,43.902,56.318,43.494,54.643,42.804z M61.109,40.801c-2.742-1.79-5.381-4.136-7.987-6.454
	c-3.54-3.15-6.973-6.201-10.489-7.771c-0.037-0.014-0.07-0.031-0.104-0.047c-1.884-0.825-3.792-1.218-5.754-0.968
	c2.794,1.812,5.481,4.2,8.134,6.56C50.358,36.968,55.545,41.578,61.109,40.801z M12.592,23.543c3.634-1.563,7-1.295,10.194,0
	c3.632-1.564,6.999-1.295,10.194,0c3.633-1.563,6.999-1.295,10.192,0c3.634-1.563,7.001-1.295,10.196,0
	c3.246-1.397,6.276-1.33,9.163-0.377c-4.277-11.972-15.716-20.54-29.158-20.54c-13.333,0-24.698,8.43-29.054,20.251
	C7.228,22.11,9.967,22.48,12.592,23.543z M57.163,25.562c2.424,1.571,4.766,3.576,7.074,5.618c-0.113-1.476-0.332-2.923-0.645-4.333
	c-0.189-0.094-0.38-0.185-0.569-0.269c-0.036-0.015-0.072-0.032-0.107-0.049C61.032,25.703,59.123,25.311,57.163,25.562z
	 M63.317,34.347c-3.542-3.15-6.974-6.202-10.49-7.771c-0.034-0.014-0.067-0.03-0.101-0.045c-1.886-0.826-3.793-1.219-5.757-0.969
	c2.796,1.812,5.482,4.2,8.135,6.56c2.96,2.635,5.844,5.197,8.754,6.864c0.218-1.236,0.363-2.496,0.428-3.776
	C63.963,34.921,63.638,34.633,63.317,34.347z"/>
<g>
	<path fill="#231F20" d="M106.039,30.854c0.121-0.102,0.237-0.21,0.352-0.317c0.053-0.05,0.109-0.098,0.161-0.148
		c0.102-0.1,0.2-0.202,0.297-0.306c0.06-0.064,0.121-0.127,0.179-0.191c0.089-0.098,0.173-0.201,0.257-0.304
		c0.062-0.072,0.122-0.146,0.18-0.223c0.078-0.099,0.151-0.2,0.224-0.302c0.06-0.083,0.118-0.167,0.174-0.253
		c0.067-0.1,0.13-0.2,0.192-0.302c0.057-0.092,0.111-0.186,0.163-0.28c0.057-0.1,0.111-0.2,0.163-0.303
		c0.052-0.1,0.1-0.202,0.147-0.304c0.046-0.101,0.093-0.201,0.136-0.304c0.046-0.108,0.087-0.219,0.127-0.33
		c0.038-0.1,0.075-0.199,0.109-0.3c0.039-0.118,0.072-0.237,0.106-0.357c0.028-0.098,0.057-0.196,0.082-0.296
		c0.032-0.128,0.057-0.261,0.082-0.391c0.019-0.094,0.041-0.187,0.056-0.282c0.024-0.149,0.04-0.301,0.056-0.452
		c0.009-0.079,0.022-0.159,0.028-0.239c0.02-0.233,0.03-0.469,0.03-0.708c0-5.117-4.214-9.201-9.372-9.201H88.274
		c-0.473,0-0.817,0.387-0.817,0.816v28.462c0,0.431,0.344,0.817,0.817,0.817h2.794c0.43,0,0.816-0.387,0.816-0.817V33.789
		c0.141-0.693,0.77-0.706,0.77-0.706l-0.001-0.004h5.209c0.359,0.006,0.566,0.175,0.681,0.331l5.552,11.062
		c0.086,0.171,0.344,0.387,0.688,0.387h3.353c0.731,0,1.033-0.688,0.731-1.247l-5.555-10.298h0.001
		c-0.144-0.708,0.444-0.961,0.444-0.961l-0.008-0.009c0.796-0.389,1.528-0.862,2.187-1.407
		C105.97,30.909,106.006,30.884,106.039,30.854z M92.693,29.38c-0.705-0.135-0.717-0.772-0.717-0.772l-0.005,0.006v-8.972
		c0.14-0.696,0.771-0.71,0.771-0.71h6.882c2.794,0,5.246,2.323,5.246,5.117c0,2.967-2.452,5.331-5.246,5.331H92.693z"/>
	<path fill="#231F20" d="M141.803,14.763h-17.198c-0.472,0-0.816,0.387-0.816,0.816v28.462c0,0.431,0.344,0.817,0.816,0.817h17.198
		c0.474,0,0.817-0.387,0.817-0.817v-2.363c0-0.431-0.343-0.817-0.817-0.817H128.93l0.001-0.003c-0.573-0.109-0.69-0.541-0.714-0.707
		v-7.839c0.133-0.622,0.656-0.688,0.748-0.695h10.732c0.429,0,0.815-0.344,0.815-0.816v-2.408c0-0.43-0.386-0.816-0.815-0.816
		h-10.765c-0.583-0.111-0.693-0.559-0.715-0.715v-7.366c0.125-0.578,0.587-0.675,0.725-0.691h12.861
		c0.474,0,0.817-0.386,0.817-0.817v-2.408C142.62,15.149,142.277,14.763,141.803,14.763z"/>
	<path fill="#231F20" d="M172.975,40.86h-10.934c-0.594-0.113-0.699-0.576-0.717-0.725V15.579c0-0.43-0.386-0.816-0.817-0.816
		h-2.837c-0.473,0-0.817,0.387-0.817,0.816v28.462c0,0.431,0.344,0.817,0.817,0.817h15.305c0.474,0,0.817-0.387,0.817-0.817v-2.363
		C173.792,41.247,173.449,40.86,172.975,40.86z"/>
	<path fill="#231F20" d="M189.701,14.763h-2.838c-0.43,0-0.816,0.387-0.816,0.816v28.462c0,0.431,0.387,0.817,0.816,0.817h2.838
		c0.429,0,0.816-0.387,0.816-0.817V15.579C190.518,15.149,190.13,14.763,189.701,14.763z"/>
	<path fill="#231F20" d="M228.442,38.022c-0.259-0.215-0.646-0.258-1.033,0.043c-2.063,1.592-4.257,2.837-7.395,2.837
		c-6.149,0-10.834-5.115-10.834-11.135s4.643-11.179,10.79-11.179c2.666,0,5.417,1.117,7.438,2.881c0.387,0.386,0.774,0.386,1.074,0
		l1.893-1.935c0.344-0.344,0.344-0.86-0.042-1.204c-2.925-2.537-6.062-3.999-10.406-3.999c-8.599,0-15.521,6.923-15.521,15.521
		c0,8.6,6.922,15.437,15.521,15.437c3.827,0,7.524-1.333,10.448-4.17c0.301-0.303,0.387-0.861,0.043-1.161L228.442,38.022z"/>
	<path fill="#231F20" d="M250.327,11.366c0.172,0.388,0.473,0.473,1.031,0.215l7.223-3.095c0.345-0.172,0.517-0.602,0.259-1.032
		l-0.989-1.892c-0.215-0.387-0.86-0.301-1.118-0.129l-6.749,3.913c-0.215,0.129-0.432,0.472-0.259,0.817L250.327,11.366z"/>
	<path fill="#231F20" d="M255.313,14.806c-0.127-0.258-0.515-0.474-0.729-0.474h-0.431c-0.216,0-0.602,0.216-0.73,0.474
		l-13.2,28.935c-0.256,0.56,0.087,1.118,0.731,1.118h2.709c0.517,0,0.86-0.344,0.99-0.646c0.857-1.977,1.762-3.912,2.622-5.89
		h14.058l2.666,5.89c0.173,0.388,0.473,0.646,0.99,0.646h2.708c0.646,0,0.987-0.559,0.73-1.118L255.313,14.806z M258.652,34.626
		h-8.65c-0.688-0.144-0.702-0.769-0.702-0.769h-0.007l4.482-10.069l0.022,0.026c0.502-0.379,0.933-0.107,1.035-0.032l4.547,10.131
		C259.263,34.508,258.796,34.608,258.652,34.626z"/>
	<path fill="#231F20" d="M302.351,23.963c0-5.117-4.214-9.201-9.373-9.201h-11.694c-0.473,0-0.816,0.387-0.816,0.816v28.462
		c0,0.431,0.344,0.817,0.816,0.817h2.794c0.431,0,0.818-0.387,0.818-0.817V33.804l0.012,0.005c0.136-0.711,0.775-0.722,0.775-0.722
		l-0.001-0.008h5.201l-0.001,0.007c0.343,0.011,0.546,0.16,0.666,0.312l0.162,0.322c0.002,0.008,0.003,0.019,0.003,0.019
		l0.003-0.006l5.39,10.738c0.086,0.171,0.343,0.387,0.688,0.387h3.354c0.731,0,1.031-0.688,0.731-1.247l-5.563-10.314
		c-0.127-0.712,0.465-0.951,0.465-0.951l-0.014-0.004C300.085,30.717,302.351,27.638,302.351,23.963z M292.634,29.38h-6.927
		l0.004-0.009c-0.709-0.134-0.723-0.774-0.723-0.774l-0.008,0.015v-8.95h0.006c0.135-0.71,0.774-0.721,0.774-0.721v-0.008h6.873
		c2.794,0,5.245,2.323,5.245,5.117C297.879,27.016,295.428,29.38,292.634,29.38z"/>
	<path fill="#231F20" d="M320.453,14.763h-2.837c-0.431,0-0.817,0.387-0.817,0.816v28.462c0,0.431,0.387,0.817,0.817,0.817h2.837
		c0.43,0,0.817-0.387,0.817-0.817V15.579C321.271,15.149,320.883,14.763,320.453,14.763z"/>
	<path fill="#231F20" d="M350.593,14.332c-8.6,0-15.435,6.923-15.435,15.521c0,8.6,6.835,15.437,15.435,15.437
		c8.599,0,15.478-6.837,15.478-15.437C366.071,21.255,359.192,14.332,350.593,14.332z M350.593,40.989
		c-6.104,0-11.137-4.987-11.137-11.137c0-6.104,5.032-11.22,11.137-11.22c6.147,0,11.178,5.116,11.178,11.22
		C361.771,36.002,356.74,40.989,350.593,40.989z"/>
</g>
</svg>
