<?xml version="1.0" encoding="utf-8"?>
<!-- Generator: Adobe Illustrator 16.0.0, SVG Export Plug-In . SVG Version: 6.00 Build 0)  -->
<!DOCTYPE svg PUBLIC "-//W3C//DTD SVG 1.1//EN" "http://www.w3.org/Graphics/SVG/1.1/DTD/svg11.dtd">
<svg version="1.1" id="Layer_1" xmlns="http://www.w3.org/2000/svg" xmlns:xlink="http://www.w3.org/1999/xlink" x="0px" y="0px"
	 width="368.833px" height="66.576px" viewBox="0 0 368.833 66.576" enable-background="new 0 0 368.833 66.576"
	 xml:space="preserve">
<g>
	<path fill="#A2DD00" d="M16.125,34.115c4.484-4.488,10.451-6.958,16.796-6.958h0.004v0.008c1.926,0,3.868,0.234,5.781,0.711
		c0.79-0.612,1.611-1.181,2.453-1.707c-2.686-0.891-5.471-1.324-8.234-1.317v-0.021c0,0,0,0-0.004,0
		c-6.965,0-13.514,2.716-18.439,7.64c-0.703,0.698-1.444,1.351-2.224,1.956c0.802,0.38,1.623,0.705,2.461,0.983
		C15.201,34.992,15.674,34.565,16.125,34.115z M9.43,27.159v0.008c1.928,0,3.868,0.233,5.782,0.71
		c0.793-0.611,1.61-1.18,2.453-1.707c-2.686-0.891-5.467-1.324-8.235-1.318v-0.02l0,0c-2.245,0-4.446,0.291-6.566,0.832
		c-0.21,0.846-0.388,1.7-0.531,2.569C4.604,27.528,6.987,27.159,9.43,27.159L9.43,27.159z M56.417,24.832L56.417,24.832
		c-6.967,0-13.518,2.716-18.439,7.64c-0.703,0.698-1.444,1.351-2.225,1.956c0.798,0.38,1.62,0.705,2.458,0.983
		c0.484-0.418,0.957-0.846,1.407-1.293c4.484-4.49,10.453-6.958,16.8-6.958l0,0v0.008c1.927,0,3.866,0.233,5.781,0.709
		c0.361-0.276,0.732-0.546,1.102-0.81c-0.092-0.463-0.198-0.925-0.312-1.38c-2.164-0.555-4.372-0.833-6.571-0.833L56.417,24.832
		L56.417,24.832z M56.417,36.315c-1.825-1.039-3.532-2.32-5.054-3.84c-0.452-0.456-0.932-0.883-1.416-1.303
		c-0.839,0.271-1.661,0.596-2.458,0.975c0.782,0.605,1.529,1.267,2.233,1.971c1.988,1.986,4.25,3.607,6.693,4.843l0,0
		c2.045,1.033,4.222,1.787,6.488,2.25c0.196-0.748,0.362-1.507,0.503-2.279c-2.443-0.497-4.81-1.37-6.993-2.611L56.417,36.315
		L56.417,36.315z M63.79,30.417c-0.803,0.633-1.583,1.315-2.322,2.055c-0.702,0.698-1.443,1.351-2.224,1.956
		c0.802,0.38,1.624,0.705,2.462,0.983c0.48-0.418,0.955-0.846,1.403-1.293c0.265-0.271,0.54-0.528,0.816-0.782
		c0-0.015,0-0.03,0-0.043C63.925,32.317,63.879,31.363,63.79,30.417z M9.43,38.96L9.43,38.96c3.598,1.813,7.595,2.781,11.746,2.781
		c2.792,0,5.589-0.462,8.235-1.332c-0.843-0.526-1.658-1.086-2.451-1.697c-6,1.501-12.278,0.58-17.529-2.393v-0.005
		c-1.825-1.039-3.532-2.32-5.053-3.84c-0.452-0.456-0.929-0.883-1.416-1.303c-0.334,0.107-0.662,0.228-0.989,0.35
		c-0.033,0.58-0.051,1.172-0.051,1.771c0,0.013,0,0.035,0,0.056c0.278,0.25,0.552,0.503,0.815,0.769
		C4.724,36.101,6.987,37.724,9.43,38.96z M44.667,41.741c2.792,0,5.592-0.462,8.235-1.332c-0.839-0.526-1.656-1.086-2.45-1.697
		c-6,1.501-12.277,0.58-17.527-2.393v-0.005c-1.828-1.039-3.532-2.32-5.054-3.84c-0.456-0.456-0.932-0.883-1.42-1.303
		c-0.838,0.271-1.656,0.596-2.453,0.975c0.782,0.605,1.529,1.267,2.234,1.971c1.987,1.986,4.247,3.607,6.692,4.843l0,0
		C36.518,40.774,40.516,41.741,44.667,41.741z M3.465,38.713c-0.342,0.084-0.684,0.166-1.028,0.228
		c0.137,0.767,0.311,1.52,0.504,2.26c1.007-0.206,2.002-0.469,2.976-0.791C5.077,39.884,4.26,39.323,3.465,38.713z M9.43,21.851
		v0.021c3.971,0,7.966,0.798,11.732,2.454c3.657-1.616,7.639-2.475,11.76-2.475h0.004v0.021c3.966,0,7.965,0.798,11.731,2.454
		c3.653-1.616,7.639-2.475,11.76-2.475l0,0v0.021c1.85,0,3.707,0.177,5.542,0.528C57.55,10.648,46.215,2.287,32.926,2.287
		c-13.287,0-24.616,8.353-29.03,20.09C5.699,22.03,7.552,21.851,9.43,21.851L9.43,21.851z M9.43,30.139
		c-0.999,0-1.988,0.072-2.958,0.213c0.007,0,0.011,0.007,0.017,0.015c0.91,0.911,1.9,1.72,2.941,2.433
		c1.049-0.718,2.039-1.529,2.943-2.433c0.002-0.008,0.002-0.008,0.006-0.008c-0.982-0.142-1.967-0.206-2.949-0.206L9.43,30.139
		L9.43,30.139z M56.417,42.254h-0.004c-3.671,1.616-7.715,2.47-11.745,2.47c-4.116,0-8.092-0.854-11.742-2.463v-0.007
		c-0.004,0-0.004,0-0.007,0c-3.667,1.616-7.712,2.47-11.742,2.47c-4.114,0-8.095-0.854-11.746-2.463v-0.007c0,0,0,0-0.003,0
		c-1.786,0.791-3.664,1.393-5.582,1.807C8.225,55.87,19.59,64.289,32.926,64.289c13.328,0,24.693-8.41,29.072-20.22
		c-1.925-0.412-3.792-1.024-5.581-1.807V42.254z M24.125,36.23c0,0-0.003,0-0.007-0.009c-0.908-0.902-1.893-1.72-2.942-2.439
		c-1.042,0.711-2.031,1.53-2.942,2.439c-0.003,0-0.003,0-0.003,0.009C20.17,36.499,22.154,36.513,24.125,36.23z M56.417,30.139
		c-1,0-1.988,0.072-2.959,0.213c0.004,0,0.012,0.007,0.014,0.015c0.915,0.911,1.899,1.72,2.946,2.433
		c1.047-0.718,2.034-1.529,2.941-2.433c0-0.008,0.004-0.008,0.008-0.008c-0.986-0.142-1.968-0.206-2.949-0.206L56.417,30.139
		L56.417,30.139z M44.667,33.781c-1.043,0.711-2.028,1.53-2.941,2.439c0,0,0,0,0,0.009c1.935,0.269,3.919,0.286,5.89,0
		c0,0-0.004,0-0.004-0.009C46.705,35.318,45.717,34.5,44.667,33.781z M32.922,30.139c-0.999,0-1.984,0.072-2.957,0.213
		c0.004,0,0.012,0.007,0.015,0.015c0.91,0.911,1.899,1.72,2.945,2.433c1.047-0.718,2.034-1.529,2.941-2.433
		c0-0.008,0.003-0.008,0.003-0.008c-0.981-0.142-1.967-0.206-2.945-0.206v-0.015C32.926,30.139,32.926,30.139,32.922,30.139z"/>
</g>
<g>
	<g>
		<path fill="#231F20" d="M88.679,61.317v-4.89l-0.94,0.995l-0.434-0.439l1.459-1.509h0.64v5.845L88.679,61.317L88.679,61.317z"/>
		<path fill="#231F20" d="M91.087,58.398c0-1.431,0.629-3.011,2.23-3.011c1.594,0,2.232,1.58,2.232,3.011
			c0,1.418-0.64,3.024-2.232,3.024C91.716,61.423,91.087,59.816,91.087,58.398z M94.808,58.398c0-1.167-0.378-2.359-1.491-2.359
			c-1.109,0-1.487,1.192-1.487,2.359s0.377,2.372,1.487,2.372C94.431,60.77,94.808,59.565,94.808,58.398z"/>
		<path fill="#231F20" d="M96.899,57.082c0-0.795,0.552-1.443,1.419-1.443c0.883,0,1.426,0.65,1.426,1.443
			c0,0.789-0.543,1.444-1.426,1.444C97.451,58.527,96.899,57.871,96.899,57.082z M99.23,57.082c0-0.566-0.335-1.009-0.911-1.009
			c-0.569,0-0.894,0.44-0.894,1.009c0,0.573,0.324,1.027,0.894,1.027C98.894,58.109,99.23,57.652,99.23,57.082z"/>
		<path fill="#231F20" d="M104.15,61.317v-5.843h3.823v0.65h-3.1v1.885h3.039v0.646h-3.039v2.014h3.1v0.649L104.15,61.317
			L104.15,61.317z"/>
		<path fill="#231F20" d="M113.814,61.317l-3.404-4.662v4.662h-0.725v-5.843h0.742l3.363,4.56v-4.56h0.726v5.843H113.814z"/>
		<path fill="#231F20" d="M116.197,58.398c0-1.795,1.322-3.023,3-3.023c1.032,0,1.75,0.491,2.216,1.162l-0.604,0.342
			c-0.335-0.501-0.947-0.849-1.612-0.849c-1.277,0-2.248,0.968-2.248,2.37c0,1.379,0.971,2.37,2.248,2.37
			c0.665,0,1.277-0.355,1.612-0.847l0.613,0.333c-0.493,0.677-1.193,1.167-2.225,1.167
			C117.521,61.423,116.197,60.192,116.197,58.398z"/>
		<path fill="#231F20" d="M122.667,58.398c0-1.72,1.172-3.023,2.896-3.023c1.725,0,2.906,1.304,2.906,3.023
			s-1.181,3.024-2.906,3.024C123.841,61.423,122.667,60.119,122.667,58.398z M127.718,58.398c0-1.366-0.85-2.371-2.155-2.371
			c-1.313,0-2.14,1.005-2.14,2.371c0,1.358,0.83,2.372,2.14,2.372C126.868,60.77,127.718,59.758,127.718,58.398z"/>
		<path fill="#231F20" d="M134.284,61.317l-3.404-4.662v4.662h-0.726v-5.843h0.745l3.361,4.56v-4.56h0.723v5.843H134.284z"/>
		<path fill="#231F20" d="M138.346,61.317v-5.192h-1.846v-0.65h4.429v0.65h-1.854v5.192H138.346z"/>
		<path fill="#231F20" d="M145.824,61.317l-1.479-2.321h-1.171v2.321h-0.729v-5.843h2.35c1.067,0,1.837,0.684,1.837,1.757
			c0,1.054-0.73,1.631-1.527,1.701l1.576,2.382L145.824,61.317L145.824,61.317z M145.876,57.231c0-0.661-0.483-1.105-1.172-1.105
			h-1.531v2.231h1.531C145.392,58.357,145.876,57.895,145.876,57.231z"/>
		<path fill="#231F20" d="M148.093,58.398c0-1.72,1.174-3.023,2.896-3.023c1.726,0,2.905,1.304,2.905,3.023
			s-1.179,3.024-2.905,3.024C149.267,61.423,148.093,60.119,148.093,58.398z M153.144,58.398c0-1.366-0.851-2.371-2.156-2.371
			c-1.313,0-2.146,1.005-2.146,2.371c0,1.358,0.834,2.372,2.146,2.372C152.294,60.77,153.144,59.758,153.144,58.398z"/>
		<path fill="#231F20" d="M161.777,61.317l-1.479-2.321h-1.172v2.321h-0.727v-5.843h2.346c1.07,0,1.838,0.684,1.838,1.757
			c0,1.054-0.727,1.631-1.523,1.701l1.574,2.382L161.777,61.317L161.777,61.317z M161.827,57.231c0-0.661-0.479-1.105-1.17-1.105
			h-1.532v2.231h1.532C161.347,58.357,161.827,57.895,161.827,57.231z"/>
		<path fill="#231F20" d="M164.281,61.317v-5.843h3.823v0.65h-3.098v1.885h3.038v0.646h-3.038v2.014h3.098v0.649L164.281,61.317
			L164.281,61.317z"/>
		<path fill="#231F20" d="M169.579,58.398c0-1.819,1.337-3.023,3-3.023c1.042,0,1.762,0.456,2.267,1.091l-0.576,0.368
			c-0.367-0.476-0.989-0.806-1.69-0.806c-1.276,0-2.251,0.969-2.251,2.371c0,1.379,0.975,2.371,2.251,2.371
			c0.702,0,1.278-0.327,1.577-0.628v-1.18h-2.013v-0.648h2.732v2.1c-0.545,0.611-1.343,1.017-2.295,1.017
			C170.916,61.429,169.579,60.214,169.579,58.398z"/>
		<path fill="#231F20" d="M176.611,61.317v-5.843h0.725v5.843H176.611z"/>
		<path fill="#231F20" d="M179.016,58.398c0-1.72,1.173-3.023,2.899-3.023c1.723,0,2.903,1.304,2.903,3.023s-1.18,3.024-2.903,3.024
			C180.189,61.423,179.016,60.119,179.016,58.398z M184.066,58.398c0-1.366-0.847-2.371-2.151-2.371
			c-1.313,0-2.146,1.005-2.146,2.371c0,1.358,0.834,2.372,2.146,2.372C183.219,60.77,184.066,59.758,184.066,58.398z"/>
		<path fill="#231F20" d="M190.633,61.317l-3.406-4.662v4.662h-0.725v-5.843h0.745l3.361,4.56v-4.56h0.725v5.843H190.633z"/>
		<path fill="#231F20" d="M197.417,61.317l-0.517-1.312h-2.902l-0.521,1.312h-0.831l2.358-5.843h0.896l2.351,5.843H197.417z
			 M195.446,56.223l-1.23,3.151h2.477L195.446,56.223z"/>
		<path fill="#231F20" d="M199.469,61.317v-5.843h0.725v5.195h2.716v0.647H199.469z"/>
		<path fill="#231F20" d="M207.252,61.317v-5.843h1.996c1.82,0,2.993,1.268,2.993,2.924c0,1.666-1.172,2.919-2.993,2.919H207.252z
			 M211.488,58.398c0-1.257-0.796-2.273-2.239-2.273h-1.271v4.545h1.271C210.667,60.67,211.488,59.653,211.488,58.398z"/>
		<path fill="#231F20" d="M213.929,61.317v-5.843h3.827v0.65h-3.101v1.885h3.037v0.646h-3.037v2.014h3.101v0.649L213.929,61.317
			L213.929,61.317z"/>
		<path fill="#231F20" d="M222.283,61.317v-5.843h3.828v0.65h-3.098v1.885h3.034v0.646h-3.034v2.014h3.098v0.649L222.283,61.317
			L222.283,61.317z"/>
		<path fill="#231F20" d="M227.468,60.492l0.435-0.562c0.38,0.438,1.01,0.841,1.834,0.841c1.042,0,1.37-0.558,1.37-1.014
			c0-1.508-3.455-0.668-3.455-2.751c0-0.96,0.858-1.631,2.013-1.631c0.888,0,1.576,0.312,2.069,0.827l-0.439,0.532
			c-0.439-0.493-1.05-0.695-1.692-0.695c-0.689,0-1.197,0.377-1.197,0.925c0,1.317,3.455,0.561,3.455,2.739
			c0,0.84-0.578,1.72-2.149,1.72C228.698,61.423,227.949,61.033,227.468,60.492z"/>
		<path fill="#231F20" d="M234.894,61.317v-5.192h-1.852v-0.65h4.429v0.65h-1.852v5.192H234.894z"/>
		<path fill="#231F20" d="M238.99,59.048v-3.573h0.734v3.558c0,1.069,0.569,1.738,1.648,1.738c1.078,0,1.654-0.669,1.654-1.738
			v-3.558h0.735v3.564c0,1.453-0.808,2.384-2.389,2.384C239.793,61.423,238.99,60.482,238.99,59.048z"/>
		<path fill="#231F20" d="M245.677,61.317v-5.843h1.994c1.822,0,2.996,1.268,2.996,2.924c0,1.666-1.174,2.919-2.996,2.919H245.677z
			 M249.916,58.398c0-1.257-0.8-2.273-2.244-2.273h-1.268v4.545h1.268C249.091,60.67,249.916,59.653,249.916,58.398z"/>
		<path fill="#231F20" d="M256.204,61.317l-0.52-1.312h-2.906l-0.516,1.312h-0.833l2.354-5.843h0.904l2.344,5.843H256.204z
			 M254.234,56.223l-1.235,3.151h2.478L254.234,56.223z"/>
		<path fill="#231F20" d="M262.478,61.317l-3.405-4.662v4.662h-0.725v-5.843h0.743l3.362,4.56v-4.56h0.727v5.843H262.478z"/>
		<path fill="#231F20" d="M266.539,61.317v-5.192h-1.847v-0.65h4.428v0.65h-1.851v5.192H266.539z"/>
		<path fill="#231F20" d="M270.637,61.317v-5.843h3.827v0.65h-3.099v1.885h3.038v0.646h-3.038v2.014h3.099v0.649L270.637,61.317
			L270.637,61.317z"/>
		<path fill="#231F20" d="M275.823,60.492l0.439-0.562c0.373,0.438,1.008,0.841,1.827,0.841c1.042,0,1.374-0.558,1.374-1.014
			c0-1.508-3.458-0.668-3.458-2.751c0-0.96,0.856-1.631,2.016-1.631c0.885,0,1.573,0.312,2.065,0.827l-0.439,0.532
			c-0.437-0.493-1.045-0.695-1.686-0.695c-0.689,0-1.202,0.377-1.202,0.925c0,1.317,3.46,0.561,3.46,2.739
			c0,0.84-0.581,1.72-2.153,1.72C277.056,61.423,276.307,61.033,275.823,60.492z"/>
		<path fill="#231F20" d="M284.676,61.317v-5.843h1.993c1.822,0,2.994,1.268,2.994,2.924c0,1.666-1.172,2.919-2.994,2.919H284.676z
			 M288.908,58.398c0-1.257-0.794-2.273-2.239-2.273h-1.269v4.545h1.269C288.09,60.67,288.908,59.653,288.908,58.398z"/>
		<path fill="#231F20" d="M291.355,61.317v-5.843h3.827v0.65h-3.101v1.885h3.036v0.646h-3.036v2.014h3.101v0.649L291.355,61.317
			L291.355,61.317z"/>
		<path fill="#231F20" d="M299.707,61.317v-5.843h1.996c1.821,0,2.991,1.268,2.991,2.924c0,1.666-1.17,2.919-2.991,2.919H299.707z
			 M303.943,58.398c0-1.257-0.797-2.273-2.239-2.273h-1.271v4.545h1.271C303.121,60.67,303.943,59.653,303.943,58.398z"/>
		<path fill="#231F20" d="M306.386,61.317v-5.843h3.827v0.65h-3.1v1.885h3.037v0.646h-3.037v2.014h3.1v0.649L306.386,61.317
			L306.386,61.317z"/>
		<path fill="#231F20" d="M311.57,60.492l0.438-0.562c0.379,0.438,1.006,0.841,1.833,0.841c1.041,0,1.373-0.558,1.373-1.014
			c0-1.508-3.457-0.668-3.457-2.751c0-0.96,0.855-1.631,2.012-1.631c0.884,0,1.577,0.312,2.068,0.827l-0.438,0.532
			c-0.438-0.493-1.053-0.695-1.688-0.695c-0.695,0-1.2,0.377-1.2,0.925c0,1.317,3.458,0.561,3.458,2.739
			c0,0.84-0.58,1.72-2.153,1.72C312.802,61.423,312.049,61.033,311.57,60.492z"/>
		<path fill="#231F20" d="M317.604,61.317v-5.843h0.729v5.843H317.604z"/>
		<path fill="#231F20" d="M320.012,58.398c0-1.819,1.34-3.023,3.001-3.023c1.042,0,1.76,0.456,2.271,1.091l-0.582,0.368
			c-0.368-0.476-0.986-0.806-1.688-0.806c-1.277,0-2.247,0.969-2.247,2.371c0,1.379,0.97,2.371,2.247,2.371
			c0.702,0,1.28-0.327,1.575-0.628v-1.18h-2.015v-0.648h2.733v2.1c-0.546,0.611-1.341,1.017-2.294,1.017
			C321.351,61.429,320.012,60.214,320.012,58.398z"/>
		<path fill="#231F20" d="M331.172,61.317l-3.403-4.662v4.662h-0.729v-5.843h0.745l3.362,4.56v-4.56h0.725v5.843H331.172z"/>
		<path fill="#231F20" d="M336.373,58.398c0-1.795,1.323-3.023,3.003-3.023c1.034,0,1.753,0.491,2.216,1.162l-0.605,0.342
			c-0.331-0.501-0.943-0.849-1.61-0.849c-1.277,0-2.247,0.968-2.247,2.37c0,1.379,0.97,2.37,2.247,2.37
			c0.667,0,1.279-0.355,1.61-0.847l0.614,0.333c-0.49,0.677-1.19,1.167-2.225,1.167C337.697,61.423,336.373,60.192,336.373,58.398z"
			/>
		<path fill="#231F20" d="M342.842,58.398c0-1.72,1.176-3.023,2.898-3.023c1.727,0,2.908,1.304,2.908,3.023
			s-1.182,3.024-2.908,3.024C344.018,61.423,342.842,60.119,342.842,58.398z M347.895,58.398c0-1.366-0.851-2.371-2.153-2.371
			c-1.312,0-2.144,1.005-2.144,2.371c0,1.358,0.833,2.372,2.144,2.372C347.044,60.77,347.895,59.758,347.895,58.398z"/>
		<path fill="#231F20" d="M349.647,61.485l2.076-6.187h0.516l-2.076,6.187H349.647z"/>
		<path fill="#231F20" d="M358.462,61.317v-4.915l-1.978,4.915h-0.298l-1.987-4.915v4.915h-0.729v-5.843h1.043l1.821,4.495
			l1.813-4.495h1.04v5.843H358.462z"/>
		<path fill="#231F20" d="M360.87,58.398c0-1.819,1.342-3.023,3.002-3.023c1.042,0,1.761,0.456,2.27,1.091l-0.579,0.368
			c-0.367-0.476-0.989-0.806-1.69-0.806c-1.278,0-2.248,0.969-2.248,2.371c0,1.379,0.97,2.371,2.248,2.371
			c0.701,0,1.28-0.327,1.576-0.628v-1.18h-2.015v-0.648h2.733v2.1c-0.541,0.611-1.34,1.017-2.294,1.017
			C362.212,61.429,360.87,60.214,360.87,58.398z"/>
	</g>
	<g>
		<path fill="#231F20" d="M105.71,30.696c0.122-0.1,0.235-0.206,0.353-0.313c0.051-0.049,0.105-0.101,0.159-0.149
			c0.104-0.101,0.199-0.206,0.299-0.306c0.057-0.066,0.121-0.13,0.177-0.194c0.089-0.101,0.174-0.198,0.257-0.307
			c0.063-0.07,0.124-0.148,0.181-0.221c0.078-0.099,0.152-0.199,0.224-0.305c0.06-0.084,0.117-0.166,0.174-0.249
			c0.067-0.101,0.133-0.206,0.193-0.307c0.056-0.093,0.11-0.187,0.164-0.278c0.057-0.1,0.114-0.205,0.164-0.305
			c0.053-0.1,0.101-0.199,0.149-0.307c0.047-0.101,0.093-0.198,0.138-0.299c0.044-0.113,0.085-0.221,0.127-0.335
			c0.037-0.1,0.075-0.197,0.111-0.298c0.036-0.122,0.071-0.241,0.105-0.354c0.025-0.101,0.058-0.2,0.079-0.299
			c0.036-0.127,0.055-0.263,0.084-0.391c0.018-0.093,0.04-0.185,0.053-0.284c0.025-0.148,0.04-0.299,0.057-0.449
			c0.012-0.084,0.022-0.164,0.029-0.241c0.019-0.236,0.028-0.471,0.028-0.713c0-5.12-4.218-9.211-9.387-9.211H87.919
			c-0.473,0-0.818,0.383-0.818,0.817v28.506c0,0.427,0.345,0.818,0.818,0.818h2.8c0.43,0,0.818-0.392,0.818-0.818v-10.27
			c0.139-0.69,0.769-0.708,0.769-0.708v-0.004h5.218c0.359,0.004,0.566,0.178,0.684,0.333l5.556,11.076
			c0.088,0.173,0.345,0.392,0.69,0.392h3.357c0.732,0,1.035-0.69,0.732-1.251l-5.564-10.316h0.004
			c-0.146-0.705,0.444-0.959,0.444-0.959l-0.007-0.009c0.797-0.391,1.529-0.859,2.188-1.407
			C105.639,30.752,105.675,30.725,105.71,30.696z M92.344,29.223c-0.706-0.136-0.719-0.775-0.719-0.775l-0.004,0.007v-8.987
			c0.137-0.696,0.772-0.71,0.772-0.71h6.894c2.797,0,5.25,2.324,5.25,5.121c0,2.974-2.453,5.341-5.25,5.341L92.344,29.223
			L92.344,29.223z"/>
		<path fill="#231F20" d="M141.527,14.581h-17.223c-0.473,0-0.818,0.385-0.818,0.819v28.506c0,0.426,0.345,0.818,0.818,0.818h17.223
			c0.473,0,0.818-0.393,0.818-0.818v-2.369c0-0.432-0.345-0.819-0.818-0.819h-12.892v-0.005c-0.572-0.109-0.688-0.541-0.712-0.705
			v-7.853c0.134-0.622,0.656-0.69,0.745-0.69h10.751c0.43,0,0.816-0.35,0.816-0.819v-2.412c0-0.435-0.386-0.817-0.816-0.817h-10.784
			c-0.583-0.114-0.693-0.563-0.712-0.72V19.32c0.124-0.576,0.586-0.675,0.725-0.69h12.88c0.474,0,0.818-0.383,0.818-0.817v-2.412
			C142.344,14.968,141.999,14.581,141.527,14.581z"/>
		<path fill="#231F20" d="M172.742,40.719h-10.946c-0.594-0.114-0.7-0.576-0.719-0.725V15.401c0-0.435-0.389-0.819-0.818-0.819
			h-2.841c-0.473,0-0.818,0.385-0.818,0.819v28.506c0,0.426,0.345,0.818,0.818,0.818h15.327c0.476,0,0.823-0.393,0.823-0.818v-2.369
			C173.565,41.106,173.22,40.719,172.742,40.719z"/>
		<path fill="#231F20" d="M189.497,14.581h-2.84c-0.432,0-0.819,0.385-0.819,0.819v28.506c0,0.426,0.387,0.818,0.819,0.818h2.84
			c0.431,0,0.815-0.393,0.815-0.818V15.401C190.313,14.968,189.927,14.581,189.497,14.581z"/>
		<path fill="#231F20" d="M228.294,37.874c-0.26-0.213-0.65-0.257-1.037,0.044c-2.065,1.594-4.264,2.845-7.406,2.845
			c-6.155,0-10.852-5.122-10.852-11.155c0-6.026,4.652-11.191,10.813-11.191c2.665,0,5.422,1.117,7.446,2.881
			c0.387,0.391,0.775,0.391,1.077,0l1.893-1.934c0.346-0.348,0.346-0.862-0.041-1.209c-2.931-2.54-6.072-4.006-10.421-4.006
			c-8.611,0-15.542,6.937-15.542,15.545c0,8.613,6.931,15.459,15.542,15.459c3.833,0,7.537-1.331,10.461-4.175
			c0.301-0.301,0.389-0.865,0.041-1.162L228.294,37.874z"/>
		<path fill="#231F20" d="M250.206,11.181c0.176,0.385,0.476,0.47,1.038,0.214l7.231-3.101c0.347-0.171,0.52-0.598,0.26-1.033
			l-0.987-1.894c-0.219-0.39-0.865-0.305-1.12-0.129l-6.76,3.915c-0.215,0.136-0.429,0.477-0.258,0.817L250.206,11.181z"/>
		<path fill="#231F20" d="M255.208,14.625c-0.132-0.257-0.521-0.476-0.734-0.476h-0.429c-0.22,0-0.604,0.221-0.736,0.476
			l-13.217,28.978c-0.26,0.561,0.087,1.122,0.728,1.122h2.714c0.517,0,0.863-0.348,0.994-0.646c0.861-1.98,1.763-3.922,2.627-5.9
			h14.077l2.671,5.9c0.171,0.38,0.473,0.646,0.987,0.646h2.716c0.646,0,0.987-0.561,0.733-1.122L255.208,14.625z M258.549,34.474
			h-8.663c-0.69-0.143-0.707-0.77-0.707-0.77h-0.005l4.488-10.08l0.021,0.022c0.503-0.379,0.937-0.106,1.04-0.03l4.553,10.147
			C259.164,34.361,258.693,34.459,258.549,34.474z"/>
		<path fill="#231F20" d="M302.315,23.796c0-5.124-4.223-9.214-9.389-9.214h-11.712c-0.475,0-0.816,0.385-0.816,0.819v28.505
			c0,0.427,0.342,0.819,0.816,0.819h2.798c0.43,0,0.818-0.393,0.818-0.819V33.65l0.015,0.004c0.136-0.709,0.774-0.725,0.774-0.725
			v-0.005h5.207v0.005c0.343,0.018,0.545,0.167,0.666,0.315l0.163,0.328c0,0.004,0.005,0.015,0.005,0.015h0.006l5.396,10.749
			c0.085,0.171,0.34,0.392,0.69,0.392h3.354c0.735,0,1.033-0.69,0.735-1.251l-5.574-10.333c-0.13-0.71,0.468-0.954,0.468-0.954
			h-0.016C300.044,30.562,302.315,27.475,302.315,23.796z M292.582,29.223h-6.938l0.004-0.015c-0.712-0.127-0.721-0.774-0.721-0.774
			l-0.012,0.019v-8.962h0.008c0.134-0.713,0.774-0.726,0.774-0.726V18.76h6.884c2.799,0,5.252,2.324,5.252,5.12
			C297.834,26.854,295.381,29.223,292.582,29.223z"/>
		<path fill="#231F20" d="M320.44,14.581h-2.842c-0.43,0-0.819,0.385-0.819,0.819v28.506c0,0.426,0.39,0.818,0.819,0.818h2.842
			c0.43,0,0.819-0.393,0.819-0.818V15.401C321.259,14.968,320.869,14.581,320.44,14.581z"/>
		<path fill="#231F20" d="M350.624,14.149c-8.61,0-15.453,6.936-15.453,15.545c0,8.614,6.843,15.459,15.453,15.459
			c8.613,0,15.504-6.846,15.504-15.459C366.128,21.085,359.239,14.149,350.624,14.149z M350.624,40.847
			c-6.114,0-11.149-4.992-11.149-11.154c0-6.113,5.035-11.234,11.149-11.234c6.157,0,11.195,5.122,11.195,11.234
			C361.82,35.854,356.781,40.847,350.624,40.847z"/>
	</g>
</g>
</svg>
